<?xml version="1.0" encoding="utf-8"?>
<!-- Generator: Adobe Illustrator 16.0.0, SVG Export Plug-In . SVG Version: 6.00 Build 0)  -->
<!DOCTYPE svg PUBLIC "-//W3C//DTD SVG 1.0//EN" "http://www.w3.org/TR/2001/REC-SVG-20010904/DTD/svg10.dtd">
<svg version="1.0"
	 id="svg3001" xmlns:svg="http://www.w3.org/2000/svg" xmlns:sodipodi="http://sodipodi.sourceforge.net/DTD/sodipodi-0.dtd" xmlns:dc="http://purl.org/dc/elements/1.1/" xmlns:cc="http://creativecommons.org/ns#" xmlns:rdf="http://www.w3.org/1999/02/22-rdf-syntax-ns#" xmlns:inkscape="http://www.inkscape.org/namespaces/inkscape" sodipodi:docname="chevron_down_font_awesome.svg" inkscape:version="0.48.3.1 r9886"
	 xmlns="http://www.w3.org/2000/svg" xmlns:xlink="http://www.w3.org/1999/xlink" x="0px" y="0px" width="880px" height="660px"
	 viewBox="0 0 880 660" enable-background="new 0 0 880 660" xml:space="preserve">
<sodipodi:namedview  id="namedview3007" inkscape:current-layer="svg3001" inkscape:window-y="25" inkscape:window-x="0" inkscape:window-height="480" inkscape:window-width="640" inkscape:pageshadow="2" inkscape:pageopacity="0" inkscape:window-maximized="0" showgrid="false" guidetolerance="10" gridtolerance="10" inkscape:cy="896" objecttolerance="10" inkscape:cx="896" borderopacity="1" bordercolor="#666666" inkscape:zoom="0.13169643" pagecolor="#ffffff">
	</sodipodi:namedview>
<g id="g3003" transform="matrix(1,0,0,-1,68.338983,1133.5593)">
	<path id="path3005" inkscape:connector-curvature="0" fill="#030753" d="M659.168,894.208c0-13.014-4.543-24.063-13.628-33.147
		L405.774,621.295c-9.33-9.33-20.502-13.995-33.516-13.995c-13.259,0-24.308,4.665-33.147,13.995L99.346,861.061
		c-9.33,8.84-13.996,19.889-13.996,33.147c0,13.014,4.666,24.186,13.996,33.516l27.254,27.623
		c9.576,9.085,20.748,13.627,33.516,13.627c13.014,0,24.063-4.542,33.147-13.627l178.995-178.996l178.996,178.996
		c9.085,9.085,20.134,13.627,33.147,13.627c12.768,0,23.939-4.542,33.516-13.627l27.622-27.623
		C654.625,918.147,659.168,906.976,659.168,894.208z"/>
</g>
</svg>
