<svg width="79" height="37" viewBox="0 0 79 37" fill="none" xmlns="http://www.w3.org/2000/svg">
<path d="M20.4577 25.4082C20.329 27.6194 20.0175 29.5322 19.5231 31.1397C19.0288 32.754 18.2907 34.0156 17.302 34.9313C16.3133 35.8469 14.9522 36.3014 13.2118 36.3014C11.8981 36.3014 10.7604 36.0368 9.81236 35.501C8.85753 34.972 8.08555 34.0291 7.48963 32.6862C6.89371 31.3432 6.44677 29.5254 6.16912 27.2532C5.88471 24.9742 5.7425 22.1118 5.7425 18.6526C5.7425 16.0277 5.82376 13.613 5.98628 11.4222C6.14881 9.23135 6.49417 7.33217 7.00883 5.73822C7.52349 4.14427 8.27516 2.90302 9.26384 2.02127C10.2525 1.13951 11.5663 0.698625 13.2118 0.698625C14.9725 0.698625 16.3539 1.17342 17.3494 2.12301C18.3448 3.07259 19.0965 4.34775 19.5841 5.96205C20.0784 7.57635 20.3764 9.43483 20.4847 11.5443C20.5931 13.6537 20.6405 15.8717 20.6405 18.1982C20.6473 20.796 20.5863 23.1971 20.4577 25.4082ZM22.2522 4.98533C21.0197 3.39138 19.6112 2.15692 18.0266 1.29551C16.442 0.434097 14.837 0 13.2118 0C11.7085 0 10.1713 0.44088 8.59343 1.32264C7.02237 2.2044 5.60029 3.45921 4.33396 5.08708C3.06763 6.71494 2.02477 8.67516 1.21215 10.9745C0.406309 13.2671 0 15.8242 0 18.6526C0 21.2436 0.365678 23.6583 1.09026 25.883C1.81485 28.1078 2.78999 30.0477 3.99537 31.6891C5.20753 33.3373 6.60929 34.6328 8.20744 35.5756C9.80559 36.5252 11.4715 37 13.2118 37C14.9725 37 16.6451 36.5116 18.2297 35.5281C19.8143 34.5514 21.2161 33.2084 22.4215 31.5127C23.6336 29.817 24.5952 27.85 25.313 25.6049C26.0309 23.3599 26.3898 20.9927 26.3898 18.4966C26.3898 15.6411 26.0105 13.0704 25.2453 10.7914C24.4869 8.51916 23.4847 6.57929 22.2522 4.98533Z" fill="#1B1950"/>
<path d="M45.4526 1.49892C46.3939 1.49892 47.2065 1.68205 47.904 2.04832C48.5947 2.41459 49.2042 2.93687 49.7188 3.62193C50.2335 4.30698 50.6872 5.1277 51.0732 6.09085C51.4592 7.05401 51.8181 8.13247 52.1499 9.33302H52.6104V0.800293H31.7803V1.49892H35.024V35.6095H31.7803V36.3081H43.4075V35.6095H40.1299V18.2524H42.4933C43.3127 18.2524 44.0034 18.4491 44.5519 18.8492C45.1004 19.2494 45.5677 19.792 45.9469 20.4703C46.3194 21.1554 46.6241 21.9422 46.8476 22.8375C47.071 23.7328 47.2674 24.6689 47.4299 25.632H47.8904V10.1198H47.4299C47.2674 11.2525 47.0507 12.27 46.7934 13.1856C46.5361 14.1013 46.2042 14.8813 45.8047 15.5325C45.4052 16.1836 44.9041 16.6788 44.3081 17.0315C43.7122 17.3774 42.9741 17.5537 42.1073 17.5537H40.1367V1.49892H45.4526Z" fill="#1B1950"/>
<path d="M72.9191 30.9429C72.6956 32.1909 72.3706 33.1609 71.9507 33.8595C71.5241 34.5581 71.0162 35.0329 70.4203 35.2839C69.8244 35.5348 69.1472 35.6569 68.3955 35.6569C67.6642 35.6569 66.987 35.6094 66.3504 35.5077V17.4995H68.3955C69.567 17.4995 70.4812 17.8386 71.1246 18.5237C71.7679 19.2019 72.2487 20.0091 72.567 20.9451C72.8852 21.8743 73.0816 22.8171 73.1493 23.7599C73.217 24.7095 73.2577 25.4624 73.2577 26.0254C73.2577 28.0602 73.1426 29.6949 72.9191 30.9429ZM66.3504 1.39716C66.6078 1.36325 66.8651 1.32933 67.1292 1.29542C67.3865 1.26151 67.6438 1.24794 67.9012 1.24794C68.7951 1.24794 69.5264 1.41751 70.102 1.74987C70.6776 2.08222 71.1313 2.59093 71.4564 3.26921C71.7882 3.94748 72.0184 4.81568 72.1606 5.86022C72.3029 6.90477 72.3706 8.15958 72.3706 9.62466C72.3706 10.52 72.3299 11.4017 72.2487 12.2699C72.1674 13.1314 71.971 13.9046 71.6663 14.5896C71.3616 15.2747 70.9011 15.8105 70.2916 16.2107C69.6822 16.6109 68.8492 16.8076 67.7928 16.8076H66.3504V1.39716ZM77.9573 31.3634C78.648 30.1018 78.9934 28.5079 78.9934 26.5748C78.9934 24.8113 78.7225 23.353 78.1808 22.1863C77.639 21.0265 76.9619 20.0837 76.1357 19.3715C75.3163 18.6593 74.4089 18.1303 73.4202 17.7979C72.4315 17.4655 71.4835 17.2485 70.5693 17.1468V16.9568C71.1313 16.8551 71.8221 16.638 72.6279 16.3057C73.4405 15.9733 74.2193 15.4918 74.9709 14.861C75.7226 14.2302 76.3592 13.423 76.8941 12.4395C77.4223 11.456 77.6864 10.2555 77.6864 8.82429C77.6864 7.23034 77.4156 5.90092 76.8738 4.83603C76.3321 3.77113 75.6481 2.92329 74.8152 2.29249C73.9823 1.66169 73.0613 1.21403 72.0455 0.9495C71.0365 0.684972 70.0749 0.549316 69.154 0.549316C68.1653 0.549316 67.1901 0.576447 66.2285 0.623927C65.2669 0.671406 64.2918 0.698537 63.3031 0.698537H57.9805V1.39716H61.2242V35.5077H57.9805V36.2063H63.3031C64.2918 36.2063 65.2737 36.2199 66.2489 36.2538C67.224 36.2877 68.2059 36.3013 69.1878 36.3013C70.0817 36.3013 71.0907 36.1588 72.2216 35.874C73.3525 35.5891 74.4089 35.0872 75.4111 34.3546C76.4201 33.6289 77.2666 32.6318 77.9573 31.3634Z" fill="#1B1950"/>
</svg>
