<svg width="32" height="30" viewBox="0 0 32 30" fill="none" xmlns="http://www.w3.org/2000/svg">
<path d="M3.36609 17.55C2.05488 17.55 1 16.47 1 15.15C1 13.82 2.06474 12.75 3.36609 12.75C4.67729 12.75 5.73217 13.83 5.73217 15.15C5.73217 16.48 4.67729 17.55 3.36609 17.55Z" stroke="black" stroke-width="1.5" stroke-miterlimit="10"/>
<path d="M15.9951 17.55C14.6839 17.55 13.629 16.47 13.629 15.15C13.629 13.82 14.6937 12.75 15.9951 12.75C17.3063 12.75 18.3612 13.83 18.3612 15.15C18.371 16.48 17.3063 17.55 15.9951 17.55Z" stroke="black" stroke-width="1.5" stroke-miterlimit="10"/>
<path d="M28.6339 17.55C27.3227 17.55 26.2678 16.47 26.2678 15.15C26.2678 13.82 27.3326 12.75 28.6339 12.75C29.9451 12.75 31 13.83 31 15.15C31 16.48 29.9353 17.55 28.6339 17.55Z" stroke="black" stroke-width="1.5" stroke-miterlimit="10"/>
</svg>
