<svg width="30" height="30" viewBox="0 0 30 30" fill="none" xmlns="http://www.w3.org/2000/svg">
<path d="M27.7236 12.4092C27.7236 17.6483 23.3518 21.3894 17.9549 21.3894C12.558 21.3894 8.18623 17.6483 8.18623 12.4092H27.7236Z" stroke="#030753" stroke-width="1.5" stroke-miterlimit="10" stroke-linecap="round"/>
<path d="M16.5093 12.2427L20.2153 2.90332C24.5696 4.07731 27.7236 7.62558 27.7236 12.2427" stroke="#030753" stroke-width="1.5" stroke-miterlimit="10" stroke-linecap="round"/>
<path d="M6.3288 9.34277C7.50279 9.93853 8.18616 11.1388 8.18616 12.6545" stroke="#030753" stroke-width="1.5" stroke-miterlimit="10" stroke-linecap="round"/>
<path d="M4.489 10.2975C5.36479 10.2975 6.07476 9.58754 6.07476 8.71174C6.07476 7.83595 5.36479 7.12598 4.489 7.12598C3.6132 7.12598 2.90323 7.83595 2.90323 8.71174C2.90323 9.58754 3.6132 10.2975 4.489 10.2975Z" stroke="#030753" stroke-width="1.5" stroke-miterlimit="10" stroke-linecap="round"/>
<path d="M12.4091 26.1292C13.8655 26.1292 15.0462 24.9485 15.0462 23.4921C15.0462 22.0357 13.8655 20.855 12.4091 20.855C10.9526 20.855 9.77197 22.0357 9.77197 23.4921C9.77197 24.9485 10.9526 26.1292 12.4091 26.1292Z" stroke="#030753" stroke-width="1.5" stroke-miterlimit="10" stroke-linecap="round"/>
<path d="M24.0263 26.1292C25.4828 26.1292 26.6635 24.9485 26.6635 23.4921C26.6635 22.0357 25.4828 20.855 24.0263 20.855C22.5699 20.855 21.3892 22.0357 21.3892 23.4921C21.3892 24.9485 22.5699 26.1292 24.0263 26.1292Z" stroke="#030753" stroke-width="1.5" stroke-miterlimit="10" stroke-linecap="round"/>
</svg>
