<svg width="30" height="30" viewBox="0 0 30 30" fill="none" xmlns="http://www.w3.org/2000/svg">
<path d="M27.381 16.5271V13.4318L23.6997 12.8293C23.4851 11.9544 23.1384 11.1372 22.6844 10.3861L24.8305 7.3239L22.6432 5.1366L19.6222 7.30739C18.8711 6.85343 18.0457 6.50676 17.1625 6.2839L16.5187 2.61914H13.4235L12.8292 6.27565C11.9543 6.49025 11.1206 6.83692 10.3613 7.29089L7.35683 5.1366L5.16953 7.3239L7.29079 10.3531C6.82857 11.1125 6.48191 11.9379 6.25905 12.821L2.61905 13.4236V16.5188L6.25079 17.1626C6.47365 18.0458 6.82032 18.8712 7.28254 19.6306L5.13651 22.635L7.32381 24.8223L10.3613 22.701C11.1206 23.155 11.946 23.5017 12.8292 23.7163L13.44 27.3728H16.5352L17.1873 23.708C18.0622 23.4852 18.8876 23.1385 19.6387 22.6845L22.6927 24.8306L24.88 22.6433L22.701 19.6141C23.1549 18.863 23.4933 18.0376 23.7079 17.1709L27.381 16.5271Z" stroke="#030753" stroke-width="1.5" stroke-miterlimit="10" stroke-linejoin="round"/>
<path d="M15 18.9373C17.1744 18.9373 18.9372 17.1746 18.9372 15.0001C18.9372 12.8257 17.1744 11.063 15 11.063C12.8256 11.063 11.0629 12.8257 11.0629 15.0001C11.0629 17.1746 12.8256 18.9373 15 18.9373Z" stroke="#030753" stroke-width="1.5" stroke-miterlimit="10" stroke-linejoin="round"/>
</svg>
